<svg width="42" height="42" viewBox="0 0 42 42" fill="none" xmlns="http://www.w3.org/2000/svg">
<path d="M40.25 7.00001V17.5M40.25 17.5H29.75M40.25 17.5L32.13 9.87001C30.2492 7.98826 27.9223 6.61362 25.3666 5.87436C22.8108 5.13511 20.1094 5.05532 17.5145 5.64246C14.9196 6.2296 12.5157 7.46452 10.5271 9.23199C8.53848 10.9995 7.03004 13.2419 6.1425 15.75M1.75 35V24.5M1.75 24.5H12.25M1.75 24.5L9.87 32.13C11.7508 34.0118 14.0777 35.3864 16.6334 36.1257C19.1892 36.8649 21.8906 36.9447 24.4855 36.3576C27.0804 35.7704 29.4843 34.5355 31.4729 32.768C33.4615 31.0006 34.97 28.7581 35.8575 26.25" stroke="#101828" stroke-width="3" stroke-linecap="round" stroke-linejoin="round"/>
</svg>
