<svg width="44" height="45" viewBox="0 0 44 45" fill="none" xmlns="http://www.w3.org/2000/svg">
<path d="M0 22.5C0 10.3497 9.84974 0.5 22 0.5C34.1503 0.5 44 10.3497 44 22.5C44 34.6503 34.1503 44.5 22 44.5C9.84974 44.5 0 34.6503 0 22.5Z" fill="url(#paint0_linear_4840_41801)"/>
<path d="M32 21.5818V22.5018C31.9988 24.6582 31.3005 26.7565 30.0093 28.4836C28.7182 30.2108 26.9033 31.4743 24.8354 32.0857C22.7674 32.6971 20.5573 32.6237 18.5345 31.8764C16.5117 31.1291 14.7847 29.7479 13.611 27.9389C12.4373 26.1299 11.8798 23.9899 12.0217 21.8381C12.1636 19.6864 12.9972 17.6381 14.3983 15.9989C15.7994 14.3596 17.6928 13.2172 19.7962 12.742C21.8996 12.2667 24.1003 12.4842 26.07 13.3618M32 14.5018L22 24.5118L19 21.5118" stroke="white" stroke-width="2" stroke-linecap="round" stroke-linejoin="round"/>
<defs>
<linearGradient id="paint0_linear_4840_41801" x1="-15.0524" y1="0.500002" x2="53.5797" y2="12.3664" gradientUnits="userSpaceOnUse">
<stop offset="0.0221541" stop-color="#410000"/>
<stop offset="0.339632" stop-color="#FA1300"/>
<stop offset="0.887088" stop-color="#FF9243"/>
<stop offset="1" stop-color="#FF8C6A"/>
</linearGradient>
</defs>
</svg>
