<svg width="44" height="44" viewBox="0 0 44 44" fill="none" xmlns="http://www.w3.org/2000/svg">
<path d="M0 22C0 9.84974 9.84974 0 22 0C34.1503 0 44 9.84974 44 22C44 34.1503 34.1503 44 22 44C9.84974 44 0 34.1503 0 22Z" fill="url(#paint0_linear_3949_44168)"/>
<path d="M32 21.0779V21.9979C31.9988 24.1543 31.3005 26.2526 30.0093 27.9797C28.7182 29.7069 26.9033 30.9704 24.8354 31.5818C22.7674 32.1932 20.5573 32.1198 18.5345 31.3725C16.5117 30.6252 14.7847 29.244 13.611 27.435C12.4373 25.6259 11.8798 23.486 12.0217 21.3342C12.1636 19.1825 12.9972 17.1342 14.3983 15.495C15.7994 13.8557 17.6928 12.7133 19.7962 12.2381C21.8996 11.7628 24.1003 11.9802 26.07 12.8579M32 13.9979L22 24.0079L19 21.0079" stroke="white" stroke-width="2" stroke-linecap="round" stroke-linejoin="round"/>
<defs>
<linearGradient id="paint0_linear_3949_44168" x1="-15.0524" y1="2.43472e-06" x2="53.5797" y2="11.8664" gradientUnits="userSpaceOnUse">
<stop offset="0.0221541" stop-color="#410000"/>
<stop offset="0.339632" stop-color="#FA1300"/>
<stop offset="0.887088" stop-color="#FF9243"/>
<stop offset="1" stop-color="#FF8C6A"/>
</linearGradient>
</defs>
</svg>
