<svg width="24" height="25" viewBox="0 0 24 25" fill="none" xmlns="http://www.w3.org/2000/svg">
<path d="M23 19.9453C23 20.4757 22.7893 20.9845 22.4142 21.3595C22.0391 21.7346 21.5304 21.9453 21 21.9453H3C2.46957 21.9453 1.96086 21.7346 1.58579 21.3595C1.21071 20.9845 1 20.4757 1 19.9453V8.94531C1 8.41488 1.21071 7.90617 1.58579 7.5311C1.96086 7.15603 2.46957 6.94531 3 6.94531H7L9 3.94531H15L17 6.94531H21C21.5304 6.94531 22.0391 7.15603 22.4142 7.5311C22.7893 7.90617 23 8.41488 23 8.94531V19.9453Z" stroke="black" stroke-width="2" stroke-linecap="round" stroke-linejoin="round"/>
<path d="M12 17.9453C14.2091 17.9453 16 16.1545 16 13.9453C16 11.7362 14.2091 9.94531 12 9.94531C9.79086 9.94531 8 11.7362 8 13.9453C8 16.1545 9.79086 17.9453 12 17.9453Z" stroke="black" stroke-width="2" stroke-linecap="round" stroke-linejoin="round"/>
</svg>
