<svg width="24" height="25" viewBox="0 0 24 25" fill="none" xmlns="http://www.w3.org/2000/svg">
<path d="M22 12.9453H2M22 12.9453V18.9453C22 19.4757 21.7893 19.9845 21.4142 20.3595C21.0391 20.7346 20.5304 20.9453 20 20.9453H4C3.46957 20.9453 2.96086 20.7346 2.58579 20.3595C2.21071 19.9845 2 19.4757 2 18.9453V12.9453M22 12.9453L18.55 6.05531C18.3844 5.7221 18.1292 5.44168 17.813 5.24559C17.4967 5.0495 17.1321 4.94551 16.76 4.94531H7.24C6.86792 4.94551 6.50326 5.0495 6.18704 5.24559C5.87083 5.44168 5.61558 5.7221 5.45 6.05531L2 12.9453M6 16.9453H6.01M10 16.9453H10.01" stroke="black" stroke-width="2" stroke-linecap="round" stroke-linejoin="round"/>
</svg>
