<svg width="24" height="25" viewBox="0 0 24 25" fill="none" xmlns="http://www.w3.org/2000/svg">
<path d="M5 18.9453H3C2.46957 18.9453 1.96086 18.7346 1.58579 18.3595C1.21071 17.9845 1 17.4757 1 16.9453V8.94531C1 8.41488 1.21071 7.90617 1.58579 7.5311C1.96086 7.15603 2.46957 6.94531 3 6.94531H6.19M15 6.94531H17C17.5304 6.94531 18.0391 7.15603 18.4142 7.5311C18.7893 7.90617 19 8.41488 19 8.94531V16.9453C19 17.4757 18.7893 17.9845 18.4142 18.3595C18.0391 18.7346 17.5304 18.9453 17 18.9453H13.81M23 13.9453V11.9453M11 6.94531L7 12.9453H13L9 18.9453" stroke="black" stroke-width="2" stroke-linecap="round" stroke-linejoin="round"/>
</svg>
