<svg width="24" height="25" viewBox="0 0 24 25" fill="none" xmlns="http://www.w3.org/2000/svg">
<g clip-path="url(#clip0_3950_44454)">
<path d="M9 1.94531V4.94531M15 1.94531V4.94531M9 20.9453V23.9453M15 20.9453V23.9453M20 9.94531H23M20 14.9453H23M1 9.94531H4M1 14.9453H4M6 4.94531H18C19.1046 4.94531 20 5.84074 20 6.94531V18.9453C20 20.0499 19.1046 20.9453 18 20.9453H6C4.89543 20.9453 4 20.0499 4 18.9453V6.94531C4 5.84074 4.89543 4.94531 6 4.94531ZM9 9.94531H15V15.9453H9V9.94531Z" stroke="black" stroke-width="2" stroke-linecap="round" stroke-linejoin="round"/>
</g>
<defs>
<clipPath id="clip0_3950_44454">
<rect width="24" height="24" fill="white" transform="translate(0 0.945312)"/>
</clipPath>
</defs>
</svg>
