<svg xmlns="http://www.w3.org/2000/svg" xmlns:xlink="http://www.w3.org/1999/xlink" width="0" height="0" style="position:absolute">
    <symbol id="info" viewBox="0 0 24 24">
        <path d="M21 12a9 9 0 1 0-18 0 9 9 0 0 0 18 0m-10 4v-4a1 1 0 1 1 2 0v4a1 1 0 1 1-2 0m1-9a1 1 0 1 1 0 2 1 1 0 1 1 0-2m11 5a11 11 0 1 1-22 0 11 11 0 0 1 22 0"/>
    </symbol>
    <symbol id="info-gradient" viewBox="0 0 24 24">
        <path d="M12 16V12M12 8H12.01M22 12C22 17.5228 17.5228 22 12 22C6.47715 22 2 17.5228 2 12C2 6.47715 6.47715 2 12 2C17.5228 2 22 6.47715 22 12Z" stroke="url(#info-liner-gradient)" stroke-width="2" stroke-linecap="round" stroke-linejoin="round"/>
        <linearGradient id="info-liner-gradient" x1="-4.84199" y1="2" x2="26.3544" y2="7.39382" gradientUnits="userSpaceOnUse">
            <stop offset="0.0221541" stop-color="#410000"/>
            <stop offset="0.339632" stop-color="#FA1300"/>
            <stop offset="0.887088" stop-color="#FF9243"/>
            <stop offset="1" stop-color="#FF8C6A"/>
        </linearGradient>
    </symbol>
</svg>
