<svg xmlns="http://www.w3.org/2000/svg" xmlns:xlink="http://www.w3.org/1999/xlink" width="0" height="0" style="position:absolute">
    <symbol id="info" viewBox="0 0 24 24">
        <path d="M21 12a9 9 0 1 0-18 0 9 9 0 0 0 18 0m-10 4v-4a1 1 0 1 1 2 0v4a1 1 0 1 1-2 0m1-9a1 1 0 1 1 0 2 1 1 0 1 1 0-2m11 5a11 11 0 1 1-22 0 11 11 0 0 1 22 0"/>
    </symbol>
    <symbol id="arrow-down" viewBox="0 0 24 24">
        <path d="M17.2929 8.29289C17.6834 7.90237 18.3164 7.90237 18.707 8.29289C19.0975 8.68342 19.0975 9.31643 18.707 9.70696L12.707 15.707C12.3164 16.0975 11.6834 16.0975 11.2929 15.707L5.29289 9.70696C4.90237 9.31643 4.90237 8.68342 5.29289 8.29289C5.68342 7.90237 6.31643 7.90237 6.70696 8.29289L11.9999 13.5859L17.2929 8.29289Z"/>
    </symbol>
    <symbol id="info-gradient" viewBox="0 0 24 24">
        <path d="M12 16V12M12 8H12.01M22 12C22 17.5228 17.5228 22 12 22C6.47715 22 2 17.5228 2 12C2 6.47715 6.47715 2 12 2C17.5228 2 22 6.47715 22 12Z" stroke="url(#info-liner-gradient)" stroke-width="2" stroke-linecap="round" stroke-linejoin="round"/>
        <linearGradient id="info-liner-gradient" x1="-4.84199" y1="2" x2="26.3544" y2="7.39382" gradientUnits="userSpaceOnUse">
            <stop offset="0.0221541" stop-color="#410000"/>
            <stop offset="0.339632" stop-color="#FA1300"/>
            <stop offset="0.887088" stop-color="#FF9243"/>
            <stop offset="1" stop-color="#FF8C6A"/>
        </linearGradient>
    </symbol>
    <symbol id="camera" viewBox="0 0 24 24">
        <path d="M22 8a1 1 0 0 0-1-1h-4a1 1 0 0 1-.8-.4L14.5 4h-5L7.8 6.6A1 1 0 0 1 7 7H3a1 1 0 0 0-1 1v11a1 1 0 0 0 1 1h18a1 1 0 0 0 1-1zm-7 5a3 3 0 1 0-6 0 3 3 0 0 0 6 0m2 0a5 5 0 1 1-10 0 5 5 0 0 1 10 0m7 6a3 3 0 0 1-3 3H3a3 3 0 0 1-3-3V8a3 3 0 0 1 3-3h3.5l1.7-2.6Q8.5 2 9 2h6q.5 0 .8.4L17.5 5H21a3 3 0 0 1 3 3z"/>
    </symbol>
    <symbol id="cross" viewBox="0 0 24 24">
        <path d="M17.3 5.3a1 1 0 1 1 1.4 1.4L13.4 12l5.3 5.3a1 1 0 1 1-1.4 1.4L12 13.4l-5.3 5.3a1 1 0 1 1-1.4-1.4l5.3-5.3-5.3-5.3a1 1 0 1 1 1.4-1.4l5.3 5.3z"/>
    </symbol>
</svg>
