<svg width="24" height="24" viewBox="0 0 24 24" fill="none" xmlns="http://www.w3.org/2000/svg">
<path d="M7 8.4H8.11111M8.11111 8.4H17M8.11111 8.4L9.11111 16.8C9.11111 17.1183 9.22817 17.4235 9.43655 17.6485C9.64492 17.8736 9.92754 18 10.2222 18H13.7778C14.0725 18 14.3551 17.8736 14.5635 17.6485C14.7718 17.4235 14.8889 17.1183 14.8889 16.8L15.8889 8.4H8.11111ZM9.77778 8.4V6.2C9.77778 5.88174 9.89484 5.57652 10.1032 5.35147C10.3116 5.12643 10.5942 5 10.8889 5H13.1111C13.4058 5 13.6884 5.12643 13.8968 5.35147C14.1052 5.57652 14.2222 5.88174 14.2222 6.2V8.4" stroke="#101828" stroke-width="2" stroke-linecap="round" stroke-linejoin="round"/>
</svg>
