<svg width="32" height="32" viewBox="0 0 32 32" xmlns="http://www.w3.org/2000/svg">
<path d="M31.3263 8.44323C30.963 7.08542 29.8733 6.01979 28.4965 5.65885C26.0066 5 16 5 16 5C16 5 5.99341 5 3.49762 5.65885C2.12083 6.01979 1.03698 7.08542 0.667887 8.44323C1.11745e-07 10.901 0 16.0229 0 16.0229C0 16.0229 1.11745e-07 21.1448 0.667887 23.6026C1.03698 24.9547 2.12083 25.9802 3.49762 26.3411C5.99341 27 16 27 16 27C16 27 26.0066 27 28.5024 26.3411C29.8792 25.9802 30.963 24.9547 31.3321 23.6026C32 21.1448 32 16.0229 32 16.0229C32 16.0229 32 10.901 31.3321 8.44323H31.3263ZM12.725 20.675V11.3708L21.0853 16.0229L12.725 20.675Z" fill="black"/>
</svg>
